<svg xmlns="http://www.w3.org/2000/svg" viewBox="0 0 215.73 250.72" width="215.73" height="250.72" role="img" aria-label="forum lockup"><title>forum lockup</title><defs></defs><g transform="translate(27.86 0) scale(0.31)"><defs><radialGradient id="mk-forum-fl0-halo" r="22%"><stop offset="0" stop-color="#c4621d" stop-opacity="0.18"/><stop offset="0.35" stop-color="#c4621d" stop-opacity="0.05"/><stop offset="1" stop-color="#c4621d" stop-opacity="0"/></radialGradient><radialGradient id="mk-forum-fl0-core"><stop offset="0" stop-color="#fffdf7"/><stop offset="0.45" stop-color="#fffdf7" stop-opacity="0.96"/><stop offset="0.72" stop-color="#e7a653" stop-opacity="0.3"/><stop offset="1" stop-color="#c4621d" stop-opacity="0"/></radialGradient></defs><polyline points="226.72,199.06 231.09,202.46 235.19,206.19 238.97,210.24 242.42,214.57 245.52,219.16 248.25,223.99 250.59,229.01 252.52,234.2 254.04,239.53 255.12,244.96 255.78,250.46 256,256 255.78,261.54 255.12,267.04 254.04,272.47 252.52,277.8 250.59,282.99 248.25,288.01 245.52,292.84 242.42,297.43 238.97,301.76 235.19,305.81 231.09,309.54 226.72,312.94" fill="none" stroke="#1a1712" stroke-width="1.2" stroke-opacity="0.3" stroke-linecap="round" stroke-linejoin="round"/><polyline points="230.79,193.37 235.6,197.11 240.1,201.21 244.27,205.66 248.07,210.43 251.48,215.48 254.48,220.78 257.05,226.31 259.17,232.02 260.84,237.88 262.04,243.86 262.76,249.91 263,256 262.76,262.09 262.04,268.14 260.84,274.12 259.17,279.98 257.05,285.69 254.48,291.22 251.48,296.52 248.07,301.57 244.27,306.34 240.1,310.79 235.6,314.89 230.79,318.63" fill="none" stroke="#1a1712" stroke-width="1.2" stroke-opacity="0.3" stroke-linecap="round" stroke-linejoin="round"/><polyline points="234.86,187.67 240.11,191.75 245.02,196.23 249.57,201.09 253.71,206.29 257.43,211.8 260.7,217.58 263.5,223.61 265.82,229.84 267.64,236.24 268.95,242.76 269.74,249.36 270,256 269.74,262.64 268.95,269.24 267.64,275.76 265.82,282.16 263.5,288.39 260.7,294.42 257.43,300.2 253.71,305.71 249.57,310.91 245.02,315.77 240.11,320.25 234.86,324.33" fill="none" stroke="#1a1712" stroke-width="1.2" stroke-opacity="0.3" stroke-linecap="round" stroke-linejoin="round"/><polyline points="238.93,181.98 244.62,186.4 249.94,191.25 254.86,196.51 259.35,202.14 263.38,208.11 266.93,214.38 269.96,220.91 272.48,227.66 274.45,234.59 275.86,241.65 276.71,248.8 277,256 276.71,263.2 275.86,270.35 274.45,277.41 272.48,284.34 269.96,291.09 266.93,297.62 263.38,303.89 259.35,309.86 254.86,315.49 249.94,320.75 244.62,325.6 238.93,330.02" fill="none" stroke="#1a1712" stroke-width="1.2" stroke-opacity="0.3" stroke-linecap="round" stroke-linejoin="round"/><polyline points="243,176.29 249.13,181.04 254.86,186.27 260.16,191.93 264.99,198 269.33,204.43 273.15,211.18 276.42,218.21 279.13,225.48 281.25,232.94 282.77,240.55 283.69,248.25 284,256 283.69,263.75 282.77,271.45 281.25,279.06 279.13,286.52 276.42,293.79 273.15,300.82 269.33,307.57 264.99,314 260.16,320.07 254.86,325.73 249.13,330.96 243,335.71" fill="none" stroke="#1a1712" stroke-width="1.2" stroke-opacity="0.3" stroke-linecap="round" stroke-linejoin="round"/><polyline points="247.08,170.59 253.64,175.69 259.78,181.29 265.46,187.36 270.64,193.86 275.29,200.75 279.38,207.98 282.88,215.51 285.78,223.3 288.05,231.3 289.69,239.44 290.67,247.7 291,256 290.67,264.3 289.69,272.56 288.05,280.7 285.78,288.7 282.88,296.49 279.38,304.02 275.29,311.25 270.64,318.14 265.46,324.64 259.78,330.71 253.64,336.31 247.08,341.41" fill="none" stroke="#1a1712" stroke-width="1.2" stroke-opacity="0.3" stroke-linecap="round" stroke-linejoin="round"/><polyline points="251.15,164.9 258.15,170.34 264.7,176.31 270.75,182.78 276.28,189.71 281.24,197.06 285.6,204.78 289.34,212.82 292.43,221.12 294.86,229.65 296.6,238.34 297.65,247.14 298,256 297.65,264.86 296.6,273.66 294.86,282.35 292.43,290.88 289.34,299.18 285.6,307.22 281.24,314.94 276.28,322.29 270.75,329.22 264.7,335.69 258.15,341.66 251.15,347.1" fill="none" stroke="#1a1712" stroke-width="1.2" stroke-opacity="0.3" stroke-linecap="round" stroke-linejoin="round"/><polyline points="255.22,159.2 262.66,164.98 269.62,171.33 276.05,178.21 281.92,185.57 287.19,193.38 291.83,201.58 295.8,210.12 299.08,218.94 301.66,228 303.51,237.24 304.63,246.59 305,256 304.63,265.41 303.51,274.76 301.66,284 299.08,293.06 295.8,301.88 291.83,310.42 287.19,318.62 281.92,326.43 276.05,333.79 269.62,340.67 262.66,347.02 255.22,352.8" fill="none" stroke="#1a1712" stroke-width="1.2" stroke-opacity="0.3" stroke-linecap="round" stroke-linejoin="round"/><polyline points="259.29,153.51 267.17,159.63 274.54,166.35 281.35,173.63 287.56,181.43 293.14,189.69 298.05,198.38 302.26,207.42 305.74,216.76 308.46,226.36 310.42,236.13 311.61,246.04 312,256 311.61,265.96 310.42,275.87 308.46,285.64 305.74,295.24 302.26,304.58 298.05,313.62 293.14,322.31 287.56,330.57 281.35,338.37 274.54,345.65 267.17,352.37 259.29,358.49" fill="none" stroke="#1a1712" stroke-width="1.2" stroke-opacity="0.3" stroke-linecap="round" stroke-linejoin="round"/><polyline points="263.36,147.82 271.68,154.27 279.45,161.37 286.65,169.05 293.21,177.29 299.1,186.01 304.28,195.17 308.72,204.72 312.39,214.58 315.27,224.71 317.34,235.03 318.58,245.48 319,256 318.58,266.52 317.34,276.97 315.27,287.29 312.39,297.42 308.72,307.28 304.28,316.83 299.1,325.99 293.21,334.71 286.65,342.95 279.45,350.63 271.68,357.73 263.36,364.18" fill="none" stroke="#1a1712" stroke-width="1.2" stroke-opacity="0.3" stroke-linecap="round" stroke-linejoin="round"/><polyline points="267.44,142.12 276.19,148.92 284.37,156.39 291.94,164.48 298.85,173.14 305.05,182.33 310.5,191.97 315.17,202.02 319.04,212.4 322.07,223.06 324.25,233.93 325.56,244.93 326,256 325.56,267.07 324.25,278.07 322.07,288.94 319.04,299.6 315.17,309.98 310.5,320.03 305.05,329.67 298.85,338.86 291.94,347.52 284.37,355.61 276.19,363.08 267.44,369.88" fill="none" stroke="#1a1712" stroke-width="1.2" stroke-opacity="0.3" stroke-linecap="round" stroke-linejoin="round"/><polyline points="271.51,136.43 280.7,143.56 289.29,151.41 297.24,159.9 304.49,169 311,178.64 316.73,188.77 321.63,199.32 325.69,210.22 328.87,221.41 331.16,232.82 332.54,244.37 333,256 332.54,267.63 331.16,279.18 328.87,290.59 325.69,301.78 321.63,312.68 316.73,323.23 311,333.36 304.49,343 297.24,352.1 289.29,360.59 280.7,368.44 271.51,375.57" fill="none" stroke="#1a1712" stroke-width="1.2" stroke-opacity="0.3" stroke-linecap="round" stroke-linejoin="round"/><polyline points="275.58,130.73 285.21,138.21 294.21,146.43 302.54,155.33 310.13,164.86 316.95,174.96 322.95,185.57 328.09,196.62 332.34,208.04 335.68,219.77 338.07,231.72 339.52,243.82 340,256 339.52,268.18 338.07,280.28 335.68,292.23 332.34,303.96 328.09,315.38 322.95,326.43 316.95,337.04 310.13,347.14 302.54,356.67 294.21,365.57 285.21,373.79 275.58,381.27" fill="none" stroke="#1a1712" stroke-width="1.2" stroke-opacity="0.3" stroke-linecap="round" stroke-linejoin="round"/><circle cx="256" cy="256" r="196" fill="none" stroke="#1a1712" stroke-width="18" opacity="1"/><polyline points="233.7,189.3 238.82,193.28 243.62,197.65 248.05,202.39 252.1,207.47 255.73,212.85 258.92,218.5 261.66,224.38 263.92,230.47 265.7,236.71 266.97,243.07 267.74,249.52 268,256 267.74,262.48 266.97,268.93 265.7,275.29 263.92,281.53 261.66,287.62 258.92,293.5 255.73,299.15 252.1,304.53 248.05,309.61 243.62,314.35 238.82,318.72 233.7,322.7" fill="none" stroke="#1a1712" stroke-width="15.3" stroke-opacity="1" stroke-linecap="round" stroke-linejoin="round"/><polyline points="268.6,140.49 277.47,147.39 285.78,154.96 293.46,163.17 300.46,171.96 306.75,181.27 312.28,191.06 317.02,201.25 320.94,211.78 324.01,222.59 326.22,233.61 327.56,244.77 328,256 327.56,267.23 326.22,278.39 324.01,289.41 320.94,300.22 317.02,310.75 312.28,320.94 306.75,330.73 300.46,340.04 293.46,348.83 285.78,357.04 277.47,364.61 268.6,371.51" fill="none" stroke="#1a1712" stroke-width="15.3" stroke-opacity="1" stroke-linecap="round" stroke-linejoin="round"/><circle cx="186" cy="256" r="95.2" fill="url(#mk-forum-fl0-halo)"/><circle cx="186" cy="256" r="38.08" fill="url(#mk-forum-fl0-core)"/><polyline points="47.33,280.74 47.03,278.13 46.77,275.52 46.55,272.9 46.35,270.28 46.19,267.66 46.06,265.04 45.96,262.41 45.9,259.79 45.87,257.16 45.87,254.54 45.9,251.91 45.97,249.28 46.07,246.66 46.21,244.03 46.37,241.41 46.57,238.79 46.8,236.18 47.07,233.56 47.36,230.95 47.69,228.35 48.05,225.75 48.45,223.15 48.88,220.56 49.33,217.97 49.83,215.39 50.35,212.82 50.91,210.25 51.49,207.69 52.11,205.14 52.76,202.59 53.45,200.06 54.16,197.53 54.91,195.01 55.69,192.5 56.5,190 57.34,187.52 58.21,185.04 59.11,182.57 60.05,180.12 61.01,177.67" fill="none" stroke="#d4144a" stroke-width="1.7" stroke-opacity="0.9" stroke-linecap="round" stroke-linejoin="round"/><polyline points="45.39,280.97 45.09,278.34 44.83,275.7 44.6,273.06 44.4,270.42 44.24,267.77 44.11,265.12 44.01,262.47 43.94,259.82 43.91,257.17 43.92,254.52 43.95,251.87 44.02,249.22 44.12,246.57 44.25,243.92 44.42,241.28 44.62,238.63 44.86,235.99 45.12,233.36 45.42,230.72 45.75,228.09 46.12,225.47 46.52,222.84 46.95,220.23 47.41,217.62 47.91,215.01 48.44,212.42 49,209.83 49.59,207.24 50.22,204.66 50.87,202.1 51.56,199.54 52.29,196.99 53.04,194.44 53.82,191.91 54.64,189.39 55.49,186.88 56.37,184.38 57.28,181.89 58.22,179.41 59.19,176.94" fill="none" stroke="#e3620b" stroke-width="1.7" stroke-opacity="0.9" stroke-linecap="round" stroke-linejoin="round"/><polyline points="43.44,281.2 43.15,278.55 42.88,275.88 42.65,273.22 42.45,270.55 42.28,267.88 42.15,265.21 42.05,262.53 41.99,259.86 41.96,257.18 41.96,254.51 42,251.83 42.06,249.16 42.17,246.48 42.3,243.81 42.47,241.14 42.67,238.47 42.91,235.81 43.18,233.15 43.48,230.49 43.82,227.83 44.18,225.18 44.59,222.54 45.02,219.9 45.49,217.26 45.99,214.64 46.52,212.01 47.09,209.4 47.69,206.79 48.32,204.19 48.98,201.6 49.68,199.02 50.41,196.44 51.17,193.88 51.96,191.32 52.79,188.78 53.64,186.24 54.53,183.72 55.45,181.2 56.4,178.7 57.38,176.21" fill="none" stroke="#c79b00" stroke-width="1.7" stroke-opacity="0.9" stroke-linecap="round" stroke-linejoin="round"/><polyline points="41.5,281.43 41.2,278.75 40.93,276.07 40.7,273.38 40.5,270.68 40.33,267.99 40.2,265.29 40.1,262.59 40.04,259.89 40,257.19 40.01,254.49 40.04,251.79 40.11,249.1 40.21,246.4 40.35,243.7 40.52,241.01 40.73,238.31 40.96,235.62 41.23,232.94 41.54,230.26 41.88,227.58 42.25,224.9 42.66,222.23 43.09,219.57 43.57,216.91 44.07,214.26 44.61,211.61 45.18,208.97 45.79,206.34 46.42,203.72 47.09,201.1 47.8,198.5 48.53,195.9 49.3,193.31 50.1,190.73 50.93,188.16 51.79,185.6 52.69,183.06 53.62,180.52 54.58,178 55.57,175.49" fill="none" stroke="#1f9a4c" stroke-width="1.7" stroke-opacity="0.9" stroke-linecap="round" stroke-linejoin="round"/><polyline points="39.56,281.67 39.26,278.96 38.99,276.25 38.75,273.53 38.55,270.82 38.38,268.1 38.25,265.38 38.15,262.65 38.08,259.93 38.05,257.2 38.05,254.48 38.09,251.76 38.16,249.03 38.26,246.31 38.4,243.59 38.57,240.87 38.78,238.15 39.02,235.44 39.29,232.73 39.6,230.02 39.94,227.32 40.32,224.62 40.72,221.93 41.17,219.24 41.64,216.56 42.15,213.88 42.7,211.21 43.27,208.55 43.88,205.89 44.53,203.25 45.2,200.61 45.91,197.98 46.65,195.35 47.43,192.74 48.23,190.14 49.07,187.55 49.94,184.97 50.85,182.4 51.79,179.84 52.75,177.29 53.75,174.76" fill="none" stroke="#0a86c0" stroke-width="1.7" stroke-opacity="0.9" stroke-linecap="round" stroke-linejoin="round"/><polyline points="37.62,281.9 37.31,279.16 37.04,276.43 36.8,273.69 36.6,270.95 36.43,268.2 36.29,265.46 36.19,262.71 36.13,259.96 36.09,257.22 36.1,254.47 36.13,251.72 36.2,248.97 36.31,246.22 36.45,243.48 36.62,240.73 36.83,237.99 37.07,235.26 37.35,232.52 37.66,229.79 38,227.06 38.38,224.34 38.79,221.62 39.24,218.91 39.72,216.2 40.24,213.5 40.78,210.81 41.37,208.12 41.98,205.44 42.63,202.77 43.31,200.11 44.03,197.46 44.77,194.81 45.56,192.17 46.37,189.55 47.22,186.93 48.1,184.33 49.01,181.74 49.95,179.16 50.93,176.59 51.94,174.03" fill="none" stroke="#3345d6" stroke-width="1.7" stroke-opacity="0.9" stroke-linecap="round" stroke-linejoin="round"/><polyline points="35.68,282.13 35.37,279.37 35.09,276.61 34.85,273.85 34.65,271.08 34.48,268.31 34.34,265.54 34.24,262.77 34.17,260 34.14,257.23 34.14,254.45 34.18,251.68 34.25,248.91 34.35,246.14 34.49,243.37 34.67,240.6 34.88,237.83 35.12,235.07 35.4,232.31 35.72,229.56 36.06,226.81 36.45,224.06 36.86,221.32 37.31,218.58 37.8,215.85 38.32,213.13 38.87,210.41 39.46,207.7 40.08,204.99 40.73,202.3 41.42,199.61 42.14,196.93 42.9,194.27 43.69,191.61 44.51,188.96 45.36,186.32 46.25,183.69 47.17,181.08 48.12,178.47 49.11,175.88 50.12,173.3" fill="none" stroke="#8b33cf" stroke-width="1.7" stroke-opacity="0.9" stroke-linecap="round" stroke-linejoin="round"/></g><path fill="#1a1712" d="M26.99 230.56V203.21H20.67V197.43H27.06V193.67Q27.06 189.57 28.4 187.25Q29.74 184.93 32 184.02Q34.25 183.12 37 183.12Q38.95 183.12 40.46 183.49Q41.97 183.86 43.32 184.53L40.9 190.17Q40.23 189.77 39.45 189.53Q38.68 189.3 37.81 189.3Q35.99 189.3 35.22 190.48Q34.45 191.65 34.45 193.67V197.43H41.71V203.21H34.45V230.56ZM59.38 231.16Q54.68 231.16 50.91 228.95Q47.15 226.73 45.03 222.83Q42.92 218.93 42.92 213.96Q42.92 208.99 45.03 205.09Q47.15 201.19 50.88 199.01Q54.61 196.83 59.38 196.83Q64.22 196.83 67.88 199.01Q71.54 201.19 73.69 205.09Q75.84 208.99 75.84 213.96Q75.84 218.93 73.73 222.83Q71.61 226.73 67.88 228.95Q64.15 231.16 59.38 231.16ZM59.45 224.58Q62.2 224.58 64.22 223.3Q66.23 222.03 67.31 219.61Q68.38 217.19 68.38 213.96Q68.38 210.67 67.31 208.28Q66.23 205.9 64.22 204.62Q62.2 203.34 59.45 203.34Q56.56 203.34 54.54 204.65Q52.52 205.96 51.45 208.32Q50.37 210.67 50.37 213.96Q50.37 217.19 51.45 219.61Q52.52 222.03 54.54 223.3Q56.56 224.58 59.45 224.58ZM81.35 230.56V197.43H88.88V206.37L87.47 206.57Q87.8 203.68 89.42 201.5Q91.03 199.31 93.35 198.07Q95.67 196.83 97.95 196.83Q99.56 196.83 101.04 197.23Q102.52 197.63 104.13 198.57L100.51 205.29Q99.77 204.82 98.59 204.52Q97.41 204.22 96.34 204.22Q94.93 204.22 93.55 204.76Q92.17 205.29 91.1 206.4Q90.02 207.51 89.48 209.26Q89.15 210.2 88.98 211.71Q88.81 213.22 88.81 215.91V230.56ZM119.39 231.16Q115.49 231.16 112.84 229.62Q110.18 228.07 108.84 225.18Q107.49 222.29 107.49 218.2V197.43H114.95V216.18Q114.95 218.8 115.59 220.72Q116.23 222.63 117.68 223.64Q119.12 224.65 121.61 224.65Q124.5 224.65 126.14 223.13Q127.79 221.62 128.49 218.7Q129.2 215.78 129.2 211.68V197.43H136.66V230.56H129.2V223.44L130.48 223.91Q128.93 227.67 126.01 229.42Q123.08 231.16 119.39 231.16ZM143.78 230.56V197.43H151.24V206.03L149.63 206.97Q150.23 204.08 151.34 202.13Q152.45 200.19 153.93 199.01Q155.41 197.83 157.12 197.33Q158.84 196.83 160.58 196.83Q163.27 196.83 165.62 197.87Q167.97 198.91 169.62 201.23Q171.27 203.55 171.87 207.51L167.5 208.72Q168.51 204.42 170.33 201.83Q172.14 199.24 174.59 198.04Q177.05 196.83 179.94 196.83Q184.17 196.83 186.76 198.67Q189.34 200.52 190.55 203.51Q191.76 206.5 191.76 209.93V230.56H184.3V211.74Q184.3 208.99 183.67 207.11Q183.03 205.23 181.68 204.25Q180.34 203.28 178.26 203.28Q176.04 203.28 174.56 204.39Q173.08 205.49 172.31 207.78Q171.54 210.06 171.54 213.42V230.56H164.08V211.41Q164.08 207.31 162.53 205.29Q160.99 203.28 158.16 203.28Q155.95 203.28 154.4 204.42Q152.85 205.56 152.05 207.81Q151.24 210.06 151.24 213.42V230.56Z"/></svg>
